# xmcd CD database file
# Copyright (C) 1995-1998 Ti Kan
#
# Track frame offsets:
#	150
#	16430
#	32347
#	47215
#	63147
#	81387
#	93867
#	107792
#	123562
#	146437
#	157855
#	177630
#	194040
#
# Disc length: 2746 seconds
#
# Revision: 2
# Processed by: cddbd v1.4b41PL2 Copyright (c) Steve Scherf et al.
# Submitted via: CDex 1.40Beta3
#
DISCID=ad0ab80d
DTITLE=JOHN WILLIAMSON - JOHN WILLIAMSON - BOOMERAND CAFE
DYEAR=1900
DGENRE=Country
TTITLE0=IT'S A WAY OF LIFE
TTITLE1=OLD MAN VERANDAH
TTITLE2=SAIL THE NULLARBOR
TTITLE3=WESTOWN
TTITLE4=WELCOME ALL TO BROOME
TTITLE5=CROCODILE ROLL
TTITLE6=THE MARCH FOR AUSTRALIA ('A NEW BEGINNING')
TTITLE7=THE BOOMERANG CAFE
TTITLE8=THE TRUCKIE'S WIFE
TTITLE9=MY DAD SNORES
TTITLE10=YOU'RE A MINER
TTITLE11=THE ONLY ONE
TTITLE12=ONE MORE FOR THE ROAD
EXTD=ID3G:   2
EXTT0=
EXTT1=
EXTT2=
EXTT3=
EXTT4=
EXTT5=
EXTT6=
EXTT7=
EXTT8=
EXTT9=
EXTT10=
EXTT11=
EXTT12=
PLAYORDER=
